<svg xmlns="http://www.w3.org/2000/svg" viewBox="0 0 420 120" role="img" aria-labelledby="title">
  <title id="title">Ameritas</title>
  <rect width="420" height="120" rx="8" fill="#ffffff"/>
  <text x="22" y="76" fill="#111827" font-family="Arial, Helvetica, sans-serif" font-size="58" font-weight="700">Ameritas</text>
  <path d="M326 31c24-16 55-3 63 22 5 18-2 38-18 48-15 9-36 7-49-6 15-3 25-13 28-27 3-15-4-29-17-37h-7z" fill="#c9332d"/>
  <path d="M334 45c13 3 21 14 19 27-2 12-12 21-25 22 8-10 8-21 1-32-4-7-3-13 5-17z" fill="#e24a3f"/>
</svg>
